<?xml version="1.0" encoding="UTF-8" standalone="no"?>
<svg
   xmlns:dc="http://purl.org/dc/elements/1.1/"
   xmlns:cc="http://creativecommons.org/ns#"
   xmlns:rdf="http://www.w3.org/1999/02/22-rdf-syntax-ns#"
   xmlns:svg="http://www.w3.org/2000/svg"
   xmlns="http://www.w3.org/2000/svg"
   xmlns:sodipodi="http://sodipodi.sourceforge.net/DTD/sodipodi-0.dtd"
   xmlns:inkscape="http://www.inkscape.org/namespaces/inkscape"
   width="793.70074"
   height="1122.5197"
   viewBox="0 0 793.70074 1122.5197"
   version="1.1"
   xml:space="preserve"
   style="clip-rule:evenodd;fill-rule:evenodd;stroke-linejoin:round;stroke-miterlimit:2"
   id="svg50"
   sodipodi:docname="mister_laser_case_forprint.svg"
   inkscape:version="0.92.0 r15299"><metadata
     id="metadata56"><rdf:RDF><cc:Work
         rdf:about=""><dc:format>image/svg+xml</dc:format><dc:type
           rdf:resource="http://purl.org/dc/dcmitype/StillImage" /><dc:title></dc:title></cc:Work></rdf:RDF></metadata><defs
     id="defs54" /><sodipodi:namedview
     pagecolor="#ffffff"
     bordercolor="#666666"
     borderopacity="1"
     objecttolerance="10"
     gridtolerance="10"
     guidetolerance="10"
     inkscape:pageopacity="0"
     inkscape:pageshadow="2"
     inkscape:window-width="2560"
     inkscape:window-height="1377"
     id="namedview52"
     showgrid="false"
     inkscape:document-units="mm"
     fit-margin-top="0"
     fit-margin-left="0"
     fit-margin-right="0"
     fit-margin-bottom="0"
     inkscape:zoom="0.32770186"
     inkscape:cx="703.40434"
     inkscape:cy="392.56414"
     inkscape:window-x="-8"
     inkscape:window-y="-8"
     inkscape:window-maximized="1"
     inkscape:current-layer="svg50" /><g
     id="g6"
     transform="matrix(-0.32000012,0,0,-0.32000022,1495.135,1117.8623)"><path
       inkscape:connector-curvature="0"
       id="path4"
       style="fill:#5a7cba"
       d="m 3314.7,2461.45 c -52.36,0 -94.81,42.45 -94.81,94.82 v 762.6 c 0,25.08 9.96,49.12 27.69,66.85 17.73,17.73 41.78,27.69 66.85,27.69 255.83,0 959.56,0 1215.31,0 25.06,0 49.09,-9.95 66.81,-27.67 17.71,-17.71 27.67,-41.74 27.67,-66.8 V 2556.2 c 0,-52.33 -42.42,-94.75 -94.75,-94.75 z m 414.82,922.44 v -41.34 h -124.01 v 41.34 z m 509.31,0 v -41.34 h -124.02 v 41.34 z m 276.71,-103.94 c 11.69,0 21.17,9.49 21.17,21.17 0,11.69 -9.48,21.18 -21.17,21.18 -11.69,0 -21.17,-9.49 -21.17,-21.18 0,-11.68 9.48,-21.17 21.17,-21.17 z m -1186.97,0 c 11.68,0 21.17,9.49 21.17,21.17 0,11.69 -9.49,21.18 -21.17,21.18 -11.69,0 -21.18,-9.49 -21.18,-21.18 0,-11.68 9.49,-21.17 21.18,-21.17 z m 1123.12,-185.01 v 35.3 c 0,6.55 -0.87,12.62 -2.61,18.19 -1.74,5.58 -4.3,10.41 -7.67,14.51 -3.38,4.09 -7.55,7.29 -12.51,9.59 -4.96,2.3 -10.67,3.45 -17.12,3.45 -5.11,0 -9.46,-0.71 -13.04,-2.15 -3.58,-1.43 -6.55,-3.01 -8.9,-4.75 -2.67,-2.05 -4.92,-4.35 -6.76,-6.91 l -33.77,19.19 v -38.38 l 25.94,-15.34 h -25.94 v -32.7 z m -313.28,-192.85 -266.93,266.92 c 10.78,1.52 21.8,2.3 33,2.3 2.86,0 5.7,-0.05 8.53,-0.16 l 227.54,-227.53 c 0.1,-2.84 0.15,-5.68 0.15,-8.53 0,-11.2 -0.78,-22.22 -2.29,-33 z m -6.03,95.31 -165.58,165.59 c 80.32,-21.95 143.64,-85.27 165.58,-165.59 z m -14.63,-163.94 -314.9,314.9 c 10.08,4.81 20.56,8.94 31.37,12.3 l 295.84,-295.84 c -3.37,-10.81 -7.49,-21.28 -12.31,-31.36 z m 482.26,303.85 v -124.02 h -41.34 v 124.02 z m -1314.57,0 v -124.02 h -41.34 v 124.02 z m 796.85,-357.67 -333.26,333.25 c 7.81,6.84 16.07,13.16 24.73,18.94 l 327.46,-327.46 c -5.77,-8.66 -12.1,-16.93 -18.93,-24.73 z m -602.94,258.72 c 25.75,0 46.66,20.9 46.66,46.65 0,25.75 -20.91,46.65 -46.66,46.65 -25.74,0 -46.65,-20.9 -46.65,-46.65 0,-25.75 20.91,-46.65 46.65,-46.65 z m 154.1,67.32 v -41.34 h -41.34 v 41.34 z m 401.2,-367.7 -327.27,327.28 c 5.75,8.68 12.06,16.96 18.87,24.79 l 333.2,-333.19 c -7.83,-6.82 -16.11,-13.13 -24.8,-18.88 z m 417.04,339 v -60.32 h -102.38 v 61.4 h 26.86 v -28.7 h 11.82 v 27.16 h 25.48 v -27.16 h 11.36 v 27.62 z m -126.32,-49.09 v 18.42 l -76.78,29.12 v -24.17 l 6.9,-2.54 v -23.25 l -6.9,-2.53 v -24.18 z m -351.32,-318.59 -295.36,295.36 c 3.34,10.83 7.43,21.33 12.23,31.44 l 314.57,-314.58 c -10.1,-4.79 -20.6,-8.89 -31.44,-12.22 z m 477.64,294.32 v -71.53 h -26.86 v 18.88 h -75.52 v 33.77 h 75.52 v 18.88 z m -164.55,-7.73 v -29.59 h -10.12 v 6.91 c -1.92,-1.54 -3.43,-3.38 -4.54,-5.53 -1.12,-2.15 -1.67,-4.53 -1.67,-7.13 0,-2.23 0.4,-4.32 1.2,-6.28 0.81,-1.96 1.92,-3.66 3.34,-5.12 1.42,-1.46 3.13,-2.61 5.13,-3.45 1.99,-0.85 4.14,-1.27 6.44,-1.27 2.3,0 4.45,0.38 6.45,1.15 1.99,0.77 3.7,1.82 5.12,3.17 1.42,1.34 2.53,2.93 3.34,4.77 0.81,1.85 1.21,3.88 1.21,6.1 0,2 -0.33,4.03 -0.98,6.1 -0.65,2.08 -1.59,3.8 -2.82,5.19 l 19.8,13.92 c 1.46,-1.68 2.8,-3.8 4.03,-6.33 1.07,-2.15 2.03,-4.79 2.88,-7.94 0.84,-3.15 1.26,-6.87 1.26,-11.17 0,-5.52 -1.05,-10.68 -3.16,-15.48 -2.11,-4.8 -4.99,-8.94 -8.64,-12.43 -3.64,-3.49 -7.92,-6.24 -12.83,-8.23 -4.91,-2 -10.13,-3 -15.66,-3 -5.68,0 -10.97,1.06 -15.88,3.17 -4.92,2.11 -9.18,4.99 -12.78,8.63 -3.61,3.65 -6.45,7.93 -8.52,12.84 -2.07,4.91 -3.11,10.13 -3.11,15.66 0,3.75 0.5,7.4 1.5,10.93 1,3.53 2.42,6.81 4.26,9.84 1.84,3.04 4.05,5.78 6.62,8.23 2.57,2.46 5.43,4.57 8.57,6.34 z m -807.79,-105.11 c 25.75,0 46.66,20.9 46.66,46.65 0,25.75 -20.91,46.66 -46.66,46.66 -25.74,0 -46.65,-20.91 -46.65,-46.66 0,-25.75 20.91,-46.65 46.65,-46.65 z m 189.58,34.36 226.08,-226.09 c 3.14,-0.12 6.3,-0.18 9.47,-0.18 10.92,0 21.67,0.74 32.2,2.18 l -266.24,266.24 c -0.65,-4.74 -1.15,-9.53 -1.51,-14.36 z m -35.48,32.96 v -41.34 h -41.34 v 41.34 z m 818.7,-39.05 c 0.31,-2.15 0.62,-4.35 0.92,-6.6 0.21,-1.95 0.44,-4.15 0.69,-6.6 0.26,-2.46 0.39,-4.92 0.39,-7.37 0,-4.71 -0.64,-9.13 -1.92,-13.28 -1.28,-4.14 -3.15,-7.75 -5.6,-10.82 -2.46,-3.07 -5.53,-5.47 -9.21,-7.21 -3.69,-1.74 -7.93,-2.61 -12.74,-2.61 -4.3,0 -8.11,0.71 -11.44,2.15 -3.32,1.43 -6.32,3.25 -8.98,5.45 -2.66,2.2 -5.01,4.55 -7.06,7.06 -2.04,2.5 -3.91,4.86 -5.6,7.06 -1.69,2.2 -3.22,4.01 -4.61,5.44 -1.38,1.44 -2.73,2.15 -4.06,2.15 -3.48,0 -5.22,-2.35 -5.22,-7.06 0,-2.66 0.15,-5.29 0.46,-7.9 0.31,-2.61 0.72,-4.94 1.23,-6.98 0.41,-2.46 0.97,-4.81 1.69,-7.06 h -30.7 c -0.72,2.45 -1.33,5.16 -1.84,8.13 -0.52,2.56 -0.95,5.5 -1.31,8.83 -0.36,3.32 -0.54,6.93 -0.54,10.82 0,6.44 0.85,12.02 2.54,16.73 1.69,4.7 3.99,8.57 6.9,11.58 2.92,3.02 6.35,5.25 10.29,6.68 3.94,1.43 8.16,2.15 12.66,2.15 4.3,0 8.19,-0.69 11.67,-2.07 3.47,-1.38 6.6,-3.07 9.36,-5.07 2.76,-1.99 5.22,-4.19 7.37,-6.6 2.15,-2.4 4.04,-4.6 5.67,-6.6 1.64,-1.99 3.07,-3.68 4.3,-5.06 1.23,-1.38 2.25,-2.07 3.07,-2.07 0.92,0 1.64,0.3 2.15,0.92 0.51,0.61 0.87,1.33 1.08,2.15 0.2,0.81 0.33,1.68 0.38,2.6 0.05,0.93 0.08,1.69 0.08,2.31 0,1.12 -0.06,2.2 -0.16,3.22 -0.1,1.02 -0.2,1.94 -0.3,2.76 -0.11,1.03 -0.21,1.95 -0.31,2.77 z m -156.02,-8.58 c -5.29,0 -9.8,-0.92 -13.52,-2.76 -3.73,-1.84 -6.74,-4.36 -9.04,-7.54 -2.3,-3.19 -3.99,-6.91 -5.07,-11.17 -1.07,-4.26 -1.61,-8.84 -1.61,-13.76 h -18.3 v -24.52 h 76.78 v 24.52 c 0,4.92 -0.54,9.5 -1.61,13.76 -1.08,4.26 -2.76,7.98 -5.07,11.17 -2.3,3.18 -5.31,5.7 -9.03,7.54 -3.72,1.84 -8.23,2.76 -13.53,2.76 z m -455.22,-202.94 c -79.31,22.14 -141.85,84.68 -163.98,163.99 z m 759.1,154.04 v -124.02 h -41.34 v 124.02 z m -1314.57,0 v -124.02 h -41.34 v 124.02 z m 1166.25,-12.36 v -34.69 h -102.38 v 34.69 z m -972.34,-99.3 c 25.75,0 46.66,20.9 46.66,46.65 0,25.75 -20.91,46.65 -46.66,46.65 -25.74,0 -46.65,-20.9 -46.65,-46.65 0,-25.75 20.91,-46.65 46.65,-46.65 z m 846.02,88.73 v -45.24 h -76.78 v 24.52 h 29.01 v 20.37 h 19.11 v -20.37 h 8.52 v 20.72 z m -691.92,-21.41 v -41.34 h -41.34 v 41.34 z m 818.24,-21.13 v -27.01 l -39.29,-26.55 39.29,-26.71 v -27.01 h -102.38 v 32.69 h 36.84 l -30.7,21.03 30.7,20.87 h -36.84 v 32.69 z M 3328.57,2552.57 c 11.68,0 21.17,9.48 21.17,21.17 0,11.69 -9.49,21.17 -21.17,21.17 -11.69,0 -21.18,-9.48 -21.18,-21.17 0,-11.69 9.49,-21.17 21.18,-21.17 z m 1186.97,0 c 11.69,0 21.17,9.48 21.17,21.17 0,11.69 -9.48,21.17 -21.17,21.17 -11.69,0 -21.17,-9.48 -21.17,-21.17 0,-11.69 9.48,-21.17 21.17,-21.17 z m -786.02,-20.26 v -41.34 h -124.01 v 41.34 z m 509.31,0 v -41.34 h -124.02 v 41.34 z" /></g><g
     id="g10"
     transform="matrix(-0.32000012,0,0,-0.32000022,3200.5287,843.95502)"><path
       inkscape:connector-curvature="0"
       id="path8"
       style="fill:#5a7cba"
       d="m 8643.9,592.791 c -52.25,0 -94.61,42.358 -94.61,94.61 v 763.219 c 0,24.96 9.92,48.91 27.57,66.56 17.66,17.66 41.6,27.58 66.57,27.58 255.42,0 959.45,0 1215.5,0 25.12,0 49.2,-9.98 66.96,-27.73 17.75,-17.76 27.73,-41.84 27.73,-66.96 0,-182.51 0,-581.021 0,-763.118 0,-52.004 -42.16,-94.161 -94.16,-94.161 z m 924.21,922.439 v -41.34 H 9444.1 v 41.34 z m -509.3,0 v -41.34 h -124.02 v 41.34 z m 786.13,-103.93 c 11.69,0 21.17,9.48 21.17,21.17 0,11.68 -9.48,21.17 -21.17,21.17 -11.68,0 -21.17,-9.49 -21.17,-21.17 0,-11.69 9.49,-21.17 21.17,-21.17 z m -1186.97,0 c 11.68,0 21.17,9.48 21.17,21.17 0,11.68 -9.49,21.17 -21.17,21.17 -11.69,0 -21.18,-9.49 -21.18,-21.17 0,-11.69 9.49,-21.17 21.18,-21.17 z m 1271.44,-142.65 v -124.01 h -41.34 v 124.01 z m -1314.57,0 v -124.01 h -41.34 v 124.01 z m 957.47,-100.95 c 8.48,0 15.36,-6.88 15.36,-15.36 0,-8.47 -6.88,-15.35 -15.36,-15.35 h -635.62 c -8.48,0 -15.36,6.88 -15.36,15.35 0,8.48 6.88,15.36 15.36,15.36 z m 0,-55.71 c 8.48,0 15.36,-6.88 15.36,-15.36 0,-8.48 -6.88,-15.36 -15.36,-15.36 h -635.62 c -8.48,0 -15.36,6.88 -15.36,15.36 0,8.48 6.88,15.36 15.36,15.36 z m 0,-55.71 c 8.48,0 15.36,-6.89 15.36,-15.36 0,-8.48 -6.88,-15.36 -15.36,-15.36 h -635.62 c -8.48,0 -15.36,6.88 -15.36,15.36 0,8.47 6.88,15.36 15.36,15.36 z m 0,-55.71 c 8.48,-0.01 15.36,-6.888 15.36,-15.364 0,-8.477 -6.88,-15.359 -15.36,-15.36 h -635.62 c -8.48,10e-4 -15.36,6.883 -15.36,15.36 0,8.477 6.88,15.364 15.36,15.364 z m 357.1,-7.658 V 868.896 h -41.34 v 124.016 z m -1314.57,0 V 868.896 h -41.34 v 124.016 z m 43.13,-309.001 c 11.68,0 21.17,9.487 21.17,21.172 0,11.685 -9.49,21.172 -21.17,21.172 -11.69,0 -21.18,-9.487 -21.18,-21.172 0,-11.685 9.49,-21.172 21.18,-21.172 z m 1186.97,0 c 11.69,0 21.17,9.487 21.17,21.172 0,11.685 -9.48,21.172 -21.17,21.172 -11.68,0 -21.17,-9.487 -21.17,-21.172 0,-11.685 9.49,-21.172 21.17,-21.172 z M 9568.11,663.657 V 622.318 H 9444.1 v 41.339 z m -509.3,0 v -41.339 h -124.02 v 41.339 z" /></g><g
     id="g14"
     transform="matrix(0,-0.32000022,0.32000012,0,-211.8117,3817.6946)"><path
       inkscape:connector-curvature="0"
       id="path12"
       style="fill:#5a7cba"
       d="m 8489.69,1390.31 h -8.27 V 745.423 h 361.29 v -35.469 h 118.11 v 35.469 h 391.2 v -35.469 h 118.11 v 35.469 h 361.29 v 644.887 h -8.27 v -0.45 h -353.02 v 35.45 h -118.11 v -35.45 h -391.2 v 35.45 h -118.11 v -35.45 h -353.02 z m 1081.03,-77.65 c 8.98,0 16.26,-7.28 16.26,-16.26 v -75.87 c 0,-8.98 -7.28,-16.26 -16.26,-16.26 h -157.97 c -8.97,0 -16.25,7.28 -16.25,16.26 v 75.87 c 0,8.98 7.28,16.26 16.25,16.26 z m -673.14,0 c 8.97,0 16.26,-7.28 16.26,-16.26 v -75.87 c 0,-8.98 -7.29,-16.26 -16.26,-16.26 h -157.97 c -8.98,0 -16.26,7.28 -16.26,16.26 v 75.87 c 0,8.98 7.28,16.26 16.26,16.26 z m 333.87,0 c 8.98,0 16.26,-7.28 16.26,-16.26 v -75.87 c 0,-8.98 -7.28,-16.26 -16.26,-16.26 h -157.97 c -8.97,0 -16.26,7.28 -16.26,16.26 v 75.87 c 0,8.98 7.29,16.26 16.26,16.26 z m -460.72,-230.73 c 0,-15.15 -12.3,-27.45 -27.46,-27.45 h -90.49 c -15.15,0 -27.45,12.3 -27.45,27.45 h -33.29 c -7.99,0 -14.48,6.49 -14.48,14.49 v 67.6 c 0,7.99 6.49,14.48 14.48,14.48 h 207.53 c 8,0 14.49,-6.49 14.49,-14.48 v -67.6 c 0,-7.99 -6.49,-14.48 -14.49,-14.49 z m 798.55,80.99 c 8.48,0 15.36,-6.88 15.36,-15.36 0,-8.47 -6.88,-15.36 -15.36,-15.36 h -635.62 c -8.48,0 -15.36,6.89 -15.36,15.36 0,8.48 6.88,15.36 15.36,15.36 z m 0,-55.71 c 8.48,0 15.36,-6.88 15.36,-15.36 0,-8.48 -6.88,-15.36 -15.36,-15.36 h -635.62 c -8.48,0 -15.36,6.88 -15.36,15.36 0,8.48 6.88,15.36 15.36,15.36 z m 0,-55.71 c 8.48,0 15.36,-6.89 15.36,-15.36 0,-8.48 -6.88,-15.36 -15.36,-15.36 h -635.62 c -8.48,0 -15.36,6.88 -15.36,15.36 0,8.47 6.88,15.36 15.36,15.36 z m 0,-55.717 c 8.48,0 15.36,-6.882 15.36,-15.359 0,-8.477 -6.88,-15.359 -15.36,-15.359 h -635.62 c -8.48,0 -15.36,6.882 -15.36,15.359 0,8.477 6.88,15.359 15.36,15.359 z m 80.41,-57.631 c 5.54,-0.001 10.05,-4.504 10.05,-10.049 v -46.895 c 0,-5.546 -4.51,-10.049 -10.05,-10.049 h -216.4 c -5.55,0 -10.05,4.503 -10.05,10.049 v 46.895 c 0,5.546 4.5,10.049 10.05,10.049 z m -924.1,-12.082 c 4.55,-0.001 8.24,-3.691 8.24,-8.237 v -38.437 c 0,-4.546 -3.69,-8.237 -8.24,-8.237 h -85.21 c -4.54,0 -8.23,3.691 -8.23,8.237 v 38.437 c 0,4.546 3.69,8.237 8.23,8.237 z" /></g><g
     id="g18"
     transform="matrix(0,-0.32000022,0.32000012,0,-414.13016,3806.3559)"><path
       inkscape:connector-curvature="0"
       id="path16"
       style="fill:#5a7cba"
       d="m 8454.26,2762.47 h -8.27 v -644.88 h 361.29 v -35.02 h 118.11 v 35.02 h 391.2 v -35.02 h 118.11 v 35.02 h 361.29 v 644.88 h -8.27 v -0.44 H 9434.7 v 35.89 h -118.11 v -35.89 h -391.2 v 35.89 h -118.11 v -35.89 h -353.02 z m 399.57,-86.1 c 8.97,0 16.26,-7.29 16.26,-16.26 v -75.88 c 0,-8.97 -7.29,-16.25 -16.26,-16.26 h -157.97 c -8.97,0.01 -16.26,7.29 -16.26,16.26 v 75.88 c 0,8.97 7.29,16.26 16.26,16.26 z m 343.27,0 c 8.97,0 16.25,-7.29 16.25,-16.26 v -75.88 c 0,-8.97 -7.28,-16.25 -16.25,-16.26 h -157.97 c -8.98,0.01 -16.26,7.29 -16.26,16.26 v 75.88 c 0,8.97 7.28,16.26 16.26,16.26 z m 340.37,0 c 8.98,0 16.26,-7.29 16.26,-16.26 v -75.88 c 0,-8.97 -7.28,-16.25 -16.26,-16.26 H 9379.5 c -8.97,0.01 -16.25,7.29 -16.25,16.26 v 75.88 c 0,8.97 7.28,16.26 16.25,16.26 z m -137.99,-188.53 c 8.48,0 15.36,-6.89 15.36,-15.36 0,-8.48 -6.88,-15.36 -15.36,-15.36 h -714.06 c -8.48,0 -15.36,6.88 -15.36,15.36 0,8.47 6.88,15.36 15.36,15.36 z m 0,-55.72 c 8.48,0 15.36,-6.88 15.36,-15.36 0,-8.47 -6.88,-15.35 -15.36,-15.35 h -714.06 c -8.48,0 -15.36,6.88 -15.36,15.35 0,8.48 6.88,15.36 15.36,15.36 z m 0,-55.71 c 8.48,0 15.36,-6.88 15.36,-15.36 0,-8.47 -6.88,-15.36 -15.36,-15.36 h -714.06 c -8.48,0 -15.36,6.89 -15.36,15.36 0,8.48 6.88,15.36 15.36,15.36 z m 0,-55.71 c 8.48,0 15.36,-6.88 15.36,-15.36 0,-8.48 -6.88,-15.36 -15.36,-15.36 h -714.06 c -8.48,0 -15.36,6.88 -15.36,15.36 0,8.48 6.88,15.36 15.36,15.36 z m 266.49,-21.86 c 8.97,0 16.26,-7.28 16.26,-16.26 v -75.87 c 0,-8.97 -7.29,-16.26 -16.26,-16.26 H 9508 c -8.98,0 -16.26,7.29 -16.26,16.26 v 75.87 c 0,8.98 7.28,16.26 16.26,16.26 z" /></g><g
     id="g22"
     transform="matrix(0.32000012,0,0,0.32000022,-2180.6736,-233.38776)"><path
       inkscape:connector-curvature="0"
       id="path20"
       style="fill:#5a7cba"
       d="m 8975.93,851.094 h 208.2 v 644.436 h -208.2 v 35.51 h -118.11 v -35.51 h -157.63 v 35.51 h -118.11 v -35.51 H 8373.89 V 851.094 h 208.19 v -35.433 h 118.11 v 35.433 h 157.63 v -35.433 h 118.11 z m 117.16,566.936 c 11.01,0 19.95,-8.94 19.95,-19.95 v -213.67 c 0,-11.01 -8.94,-19.95 -19.95,-19.95 H 9000 c -11.01,0 -19.95,8.94 -19.95,19.95 v 213.67 c 0,11.01 8.94,19.95 19.95,19.95 z m -235.1,-3.45 c 8.98,0 16.26,-7.28 16.26,-16.26 v -75.87 c 0,-8.97 -7.28,-16.26 -16.26,-16.26 h -157.97 c -8.97,0 -16.26,7.29 -16.26,16.26 v 75.87 c 0,8.98 7.29,16.26 16.26,16.26 z M 8701,1221.86 c 15.19,0 27.52,-12.33 27.52,-27.52 v -128.4 c 0,-15.19 -12.33,-27.52 -27.52,-27.52 h -184.2 c -15.19,0 -27.51,12.33 -27.51,27.52 v 128.4 c 0,15.19 12.32,27.52 27.51,27.52 z m 219.49,0 c 5.26,0 9.52,-4.27 9.52,-9.53 v -44.45 c 0,-5.25 -4.26,-9.52 -9.52,-9.52 h -88.7 c -5.26,0 -9.53,4.27 -9.53,9.52 v 44.45 c 0,5.26 4.27,9.53 9.53,9.53 z" /></g><g
     id="g26"
     transform="matrix(0.32000012,0,0,0.32000022,-2184.5705,-365.28346)"><path
       inkscape:connector-curvature="0"
       id="path24"
       style="fill:#5a7cba"
       d="m 8712.42,2692.21 h -118.11 v -35.5 h -208.19 v -644.44 h 208.19 v -35.51 h 118.11 v 35.51 h 157.64 v -35.51 h 118.11 v 35.51 h 208.19 v 644.44 h -208.19 v 35.5 h -118.11 v -35.5 h -157.64 z m -142.54,-116.8 c 9.47,0 17.16,-7.69 17.16,-17.16 v -103.82 c 0,-9.47 -7.69,-17.16 -17.16,-17.16 h -80.06 c -9.47,0 -17.15,7.69 -17.15,17.16 v 103.82 c 0,9.47 7.68,17.16 17.15,17.16 z m 0,-191.05 c 9.47,0 17.16,-7.69 17.16,-17.16 v -103.83 c 0,-9.46 -7.69,-17.15 -17.16,-17.15 h -80.06 c -9.47,0 -17.15,7.69 -17.15,17.15 v 103.83 c 0,9.47 7.68,17.16 17.15,17.16 z m 240.86,0 c 7.85,0 14.22,-6.38 14.22,-14.23 v -66.37 c 0,-7.85 -6.37,-14.22 -14.22,-14.22 h -170.11 c -7.85,0 -14.22,6.37 -14.22,14.22 v 66.37 c 0,7.85 6.37,14.23 14.22,14.23 z m 165.88,0 c 4.89,0 8.85,-3.97 8.85,-8.86 v -41.31 c 0,-4.88 -3.96,-8.85 -8.85,-8.85 h -83.98 c -4.89,0 -8.85,3.97 -8.85,8.85 v 41.31 c 0,4.89 3.96,8.86 8.85,8.86 z m 122.22,-171.2 c 13.55,0 24.56,-11.01 24.56,-24.56 V 2074 c 0,-13.55 -11.01,-24.55 -24.56,-24.55 h -338.6 c -13.55,0 -24.55,11 -24.55,24.55 0,0 0,0 0,0.01 0,8.15 -3.25,15.98 -9.01,21.75 -5.77,5.76 -13.6,9 -21.75,9 h -128.56 c -8.97,0.01 -16.26,7.29 -16.26,16.26 v 75.88 c 0,8.97 7.29,16.26 16.26,16.26 z" /></g><g
     id="g30"
     transform="matrix(0.13461898,0,0,0.1121825,271.37929,325.43204)"><rect
       id="rect28"
       style="fill:#5a7cba"
       height="336.909"
       width="112.303"
       y="1718.54"
       x="1706.65" /></g><g
     id="g34"
     transform="matrix(0.13461898,0,0,0.1121825,291.59648,325.43204)"><rect
       id="rect32"
       style="fill:#5a7cba"
       height="336.909"
       width="112.303"
       y="1718.54"
       x="1706.65" /></g><g
     id="g38"
     transform="matrix(0.13461898,0,0,0.1121825,311.81368,325.43204)"><rect
       id="rect36"
       style="fill:#5a7cba"
       height="336.909"
       width="112.303"
       y="1718.54"
       x="1706.65" /></g><g
     id="g42"
     transform="matrix(0.32000012,0,0,0.32000022,355.2953,-731.56786)"><path
       inkscape:connector-curvature="0"
       id="path40"
       style="fill:#5a7cba"
       d="m 737.873,4230.18 c -1.381,-1.23 -3.108,-2.17 -5.18,-2.82 -2.072,-0.65 -4.106,-0.98 -6.101,-0.98 -2.225,0 -4.259,0.4 -6.101,1.21 -1.842,0.81 -3.434,1.92 -4.777,3.34 -1.343,1.42 -2.398,3.13 -3.166,5.12 -0.767,2 -1.151,4.14 -1.151,6.45 0,2.3 0.422,4.45 1.266,6.44 0.844,2 1.996,3.71 3.454,5.13 1.458,1.41 3.165,2.53 5.122,3.33 1.957,0.81 4.048,1.21 6.274,1.21 2.609,0 4.988,-0.55 7.137,-1.67 2.149,-1.11 3.991,-2.62 5.526,-4.54 h -6.907 v -10.12 h 29.584 v 19.56 c -1.765,3.14 -3.875,6 -6.331,8.57 -2.456,2.57 -5.199,4.78 -8.231,6.62 -3.031,1.84 -6.312,3.26 -9.842,4.26 -3.53,1 -7.176,1.5 -10.936,1.5 -5.525,0 -10.744,-1.04 -15.656,-3.11 -4.911,-2.07 -9.19,-4.91 -12.835,-8.52 -3.645,-3.61 -6.523,-7.87 -8.634,-12.78 -2.11,-4.91 -3.165,-10.2 -3.165,-15.88 0,-5.53 0.997,-10.75 2.993,-15.66 1.995,-4.91 4.739,-9.19 8.23,-12.83 3.492,-3.65 7.636,-6.53 12.433,-8.64 4.796,-2.11 9.957,-3.16 15.483,-3.16 4.298,0 8.02,0.42 11.166,1.26 3.147,0.85 5.794,1.81 7.943,2.88 2.533,1.23 4.643,2.57 6.331,4.03 z m -132.267,-26.13 v 20.14 h -20.721 v 8.52 h 20.376 v 19.11 h -20.376 v 29.01 h -24.519 v -76.78 z m 36.607,0 c 4.912,0 9.497,0.54 13.756,1.61 4.259,1.07 7.981,2.76 11.166,5.07 3.185,2.3 5.698,5.31 7.54,9.03 1.842,3.72 2.763,8.23 2.763,13.53 0,5.29 -0.921,9.8 -2.763,13.52 -1.842,3.72 -4.355,6.74 -7.54,9.04 -3.185,2.3 -6.907,3.99 -11.166,5.06 -4.259,1.08 -8.845,1.62 -13.756,1.62 v 18.3 h -24.52 v -76.78 z m 171.061,0 29.124,76.78 h -24.174 l -2.533,-6.91 h -23.253 l -2.532,6.91 h -24.175 l 29.124,-76.78 z m -181.441,-55.72 c 2.251,0.72 4.605,1.28 7.06,1.69 2.047,0.51 4.375,0.92 6.984,1.23 2.609,0.31 5.244,0.46 7.905,0.46 4.707,0 7.06,-1.74 7.06,-5.22 0,-1.33 -0.716,-2.69 -2.149,-4.07 -1.432,-1.38 -3.248,-2.91 -5.448,-4.6 -2.2,-1.69 -4.554,-3.56 -7.061,-5.6 -2.507,-2.05 -4.86,-4.4 -7.06,-7.06 -2.2,-2.67 -4.017,-5.66 -5.449,-8.98 -1.433,-3.33 -2.149,-7.14 -2.149,-11.44 0,-4.81 0.87,-9.05 2.609,-12.74 1.74,-3.68 4.145,-6.75 7.214,-9.21 3.07,-2.45 6.677,-4.32 10.821,-5.6 4.144,-1.28 8.57,-1.92 13.277,-1.92 2.456,0 4.911,0.13 7.367,0.39 2.456,0.25 4.656,0.48 6.6,0.69 2.251,0.3 4.451,0.61 6.6,0.92 v 28.7 c -0.819,-0.1 -1.74,-0.2 -2.763,-0.31 -0.818,-0.1 -1.739,-0.2 -2.763,-0.3 -1.023,-0.11 -2.097,-0.16 -3.223,-0.16 -0.614,0 -1.381,0.03 -2.302,0.08 -0.921,0.05 -1.791,0.18 -2.609,0.38 -0.819,0.21 -1.535,0.57 -2.149,1.08 -0.614,0.51 -0.921,1.23 -0.921,2.15 0,0.81 0.691,1.84 2.072,3.07 1.381,1.22 3.07,2.66 5.065,4.29 1.995,1.64 4.195,3.53 6.6,5.68 2.405,2.15 4.605,4.61 6.6,7.37 1.995,2.76 3.684,5.88 5.065,9.36 1.381,3.48 2.072,7.37 2.072,11.67 0,4.5 -0.716,8.72 -2.149,12.66 -1.432,3.94 -3.658,7.37 -6.676,10.28 -3.019,2.92 -6.882,5.22 -11.589,6.91 -4.707,1.69 -10.283,2.53 -16.73,2.53 -3.888,0 -7.495,-0.18 -10.821,-0.53 -3.325,-0.36 -6.267,-0.8 -8.825,-1.31 -2.968,-0.51 -5.679,-1.12 -8.135,-1.84 z m -122.329,-31.31 26.553,-39.29 h 27.014 v 102.37 h -32.693 v -36.83 l -20.874,30.7 -21.028,-30.7 v 36.83 h -32.693 v -102.37 h 27.014 z m 106.673,-39.29 v 102.37 h -34.688 v -102.37 z m 227.775,0 v 26.86 h -27.628 v 11.36 h 27.168 v 25.48 h -27.168 v 11.81 h 28.703 v 26.86 h -61.395 v -102.37 z m -73.367,0 v 26.86 h -18.879 v 75.51 h -33.767 v -75.51 H 699.06 v -26.86 z m 126.627,0 c 6.549,0 12.612,0.87 18.188,2.61 5.577,1.74 10.412,4.3 14.505,7.67 4.093,3.38 7.29,7.55 9.593,12.51 2.302,4.96 3.453,10.67 3.453,17.12 0,5.11 -0.716,9.46 -2.149,13.04 -1.432,3.58 -3.018,6.55 -4.758,8.9 -2.046,2.66 -4.348,4.91 -6.907,6.76 l 19.186,33.76 h -38.371 l -15.349,-25.94 v 25.94 H 861.91 v -102.37 z" /></g></svg>